<svg id="Layer_1" data-name="Layer 1" xmlns="http://www.w3.org/2000/svg" viewBox="0 0 360 360"><defs><style>.cls-1{fill:#fff;}</style></defs><path class="cls-1" d="M180,322.84c-78.76,0-142.84-64.08-142.84-142.84S101.24,37.16,180,37.16,322.84,101.24,322.84,180,258.76,322.84,180,322.84Zm0-272.68A129.84,129.84,0,1,0,309.84,180,130,130,0,0,0,180,50.16Z"/><path class="cls-1" d="M159.31,210.14a137.19,137.19,0,0,1-1,15.62A42.43,42.43,0,0,1,153,241.93a35.43,35.43,0,0,1-12.76,12.76q-8.47,5.16-23.65,5.17-17.16,0-27.17-8.69T76.15,228l14.52-2.64q5.28,21.35,26,21.34a30.62,30.62,0,0,0,13.09-2.53,22.58,22.58,0,0,0,8.69-6.93,29.18,29.18,0,0,0,4.84-10.45,53.22,53.22,0,0,0,1.54-13.09V100.14h14.52Z"/><path class="cls-1" d="M182,100.14h44.88a114.21,114.21,0,0,1,17.82,1.43,42.65,42.65,0,0,1,16.17,5.94,34.52,34.52,0,0,1,11.66,12.54q4.5,8,4.51,21.23A32.12,32.12,0,0,1,270,162q-7,8.81-20.9,11.66v.44a41.55,41.55,0,0,1,14.08,3.63,35.22,35.22,0,0,1,11,7.92,34.84,34.84,0,0,1,7.15,11.77,42.9,42.9,0,0,1,2.53,15q0,13.42-5.17,21.89a39.6,39.6,0,0,1-13,13.31,49.71,49.71,0,0,1-16.94,6.6,89.86,89.86,0,0,1-17,1.76H182Z"/></svg>