<svg id="Layer_1" data-name="Layer 1" xmlns="http://www.w3.org/2000/svg" viewBox="0 0 1224 216"><defs><style>.cls-1{fill:#fff;}</style></defs><path class="cls-1" d="M69.12,191.16H24.4V25.41H86.09c35.83,0,58.08,20.21,58.08,52.76,0,16.76-5.81,30.81-16.82,40.64C117,128.11,102.68,133,86.09,133h-17Zm-35.72-9H60.12V124h26c14.34,0,26.54-4.12,35.27-11.92,9-8.07,13.81-19.81,13.81-33.93s-4.61-25.26-13.7-32.86c-8.53-7.13-20.76-10.9-35.38-10.9H33.4Z"/><path class="cls-1" d="M232.33,194c-23.45,0-44.82-8.84-60.16-24.88-15.08-15.77-23.38-37.41-23.38-60.94a86,86,0,0,1,24.64-60.9,82.57,82.57,0,0,1,117.86,0C307,63.35,315.68,85,315.68,108.19c0,23.39-8.45,45-23.8,60.95S255.27,194,232.33,194Zm0-162.45a73.29,73.29,0,0,0-52.49,22.05,77.08,77.08,0,0,0-22.05,54.58c0,21.2,7.42,40.63,20.89,54.72,13.62,14.25,32.68,22.1,53.65,22.1,42.39,0,74.35-33,74.35-76.82C306.68,65.22,274,31.56,232.33,31.56Z"/><path class="cls-1" d="M470.29,191.16H413.07L371.9,137.9v53.26H327.18V25.41h60.55c33.78,0,55.61,20,55.61,51.05,0,21.8-10.76,39.08-29.13,47.36Zm-52.8-9h33.59L399,119.6l6.39-2c18.41-5.83,29-20.82,29-41.12,0-13.44-4.4-24-13.07-31.39-8.19-7-19.79-10.66-33.54-10.66H336.18V182.16H362.9V111.54Z"/><path class="cls-1" d="M531.49,191.16H486.77V65.76H449.53V25.41h119.2V65.76H531.49Zm-35.72-9h26.72V56.76h37.24V34.41H458.53V56.76h37.24Z"/><path class="cls-1" d="M625.49,191.16H580.77V25.41H680.4V65.76H625.49V87.92h50.73v40.35H625.49Zm-35.72-9h26.72V119.27h50.73V96.92H616.49V56.76H671.4V34.41H589.77Z"/><path class="cls-1" d="M771.13,194c-23.46,0-44.82-8.84-60.16-24.88-15.08-15.77-23.38-37.41-23.38-60.94a86,86,0,0,1,24.64-60.9,82.55,82.55,0,0,1,117.85,0c15.73,16.05,24.4,37.67,24.4,60.89,0,23.39-8.45,45-23.8,60.95S794.07,194,771.13,194Zm0-162.45a73.25,73.25,0,0,0-52.49,22.05,77.08,77.08,0,0,0-22,54.58c0,21.2,7.41,40.63,20.88,54.72,13.63,14.25,32.68,22.1,53.66,22.1,42.38,0,74.35-33,74.35-76.82C845.48,65.22,812.82,31.56,771.13,31.56Z"/><path class="cls-1" d="M964.82,191.16H866.14V25.41h44.72v125.4h54Zm-89.68-9h80.68V159.81h-54V34.41H875.14Z"/><path class="cls-1" d="M1019.29,191.16H974.57V25.41h44.72Zm-35.72-9h26.72V34.41H983.57Z"/><path class="cls-1" d="M1113,194c-23.46,0-44.82-8.84-60.16-24.88-15.08-15.77-23.38-37.41-23.38-60.94a86,86,0,0,1,24.64-60.9,82.55,82.55,0,0,1,117.85,0c15.74,16.05,24.4,37.67,24.4,60.89,0,23.39-8.45,45-23.8,60.95S1135.92,194,1113,194Zm0-162.45a73.27,73.27,0,0,0-52.49,22.05,77.08,77.08,0,0,0-22,54.58c0,21.2,7.42,40.63,20.89,54.72C1073,177.16,1092,185,1113,185c42.39,0,74.35-33,74.35-76.82C1187.33,65.22,1154.67,31.56,1113,31.56Z"/></svg>