<svg id="Layer_1" data-name="Layer 1" xmlns="http://www.w3.org/2000/svg" viewBox="0 0 360 216"><defs><style>.cls-1{fill:#fff;}</style></defs><path class="cls-1" d="M108.3,194.08c-22.53,0-45.18-9.06-62.13-24.86-17.61-16.41-27.3-37.92-27.3-60.58s9.66-44.41,27.21-60.92C63,31.77,85.71,22.63,108.3,22.63c35.23,0,53.59,14.84,54.36,15.47l2.76,2.28-19.25,38.5-4.33-3.35a50.47,50.47,0,0,0-28-8.75c-15,0-27.5,4.75-36,13.75a40.29,40.29,0,0,0,0,55.63c8.53,9,21,13.77,36,13.77a50.43,50.43,0,0,0,28-8.76l4.32-3.3,2.45,4.86,16.8,33.6-2.76,2.28C161.89,179.24,143.53,194.08,108.3,194.08Zm0-162.45c-20.33,0-40.76,8.25-56,22.65C36.53,69.07,27.87,88.37,27.87,108.64s8.68,39.31,24.43,54c15.31,14.27,35.72,22.45,56,22.45,24.18,0,39.64-7.7,45.71-11.43L142.8,151.22a59.75,59.75,0,0,1-29,7.71c-36.88,0-56.18-25.49-56.18-50.67s19.3-50.48,56.18-50.48a59.75,59.75,0,0,1,29,7.71L154,43.06C148,39.33,132.49,31.63,108.3,31.63Z"/><path class="cls-1" d="M273.85,191.23h-34.1L170.23,25.48h50.14L256.8,120.4l36.43-94.92h50.14Zm-28.12-9h22.14l62-147.75H299.41l-42.61,111-42.61-111H183.77Z"/></svg>