<svg xmlns="http://www.w3.org/2000/svg" xmlns:xlink="http://www.w3.org/1999/xlink" width="100" height="100" viewBox="0 0 100 100"><circle stroke="none" fill="#000000" r="48%" cx="50%" cy="50%"></circle><g transform="translate(50 50) scale(0.69 0.69) rotate(0) translate(-50 -50)" style="fill:#ffffff"><svg fill="#ffffff" xmlns="http://www.w3.org/2000/svg" xmlns:xlink="http://www.w3.org/1999/xlink" xmlns:serif="http://www.serif.com/" viewBox="0 0 100 101" version="1.1" xml:space="preserve" style="" x="0px" y="0px" fill-rule="evenodd" clip-rule="evenodd" stroke-linejoin="round" stroke-miterlimit="1.41421"><rect serif:id="Page 42" x="0" y="0.5" width="100" height="100" style="" fill="none"></rect><path d="M69.033,16.631c0.321,0.039 0.117,-0.037 0.614,0.159l0.398,0.246c0.592,-0.591 1.153,-1.272 1.803,-1.707c0.213,-0.143 0.614,-0.264 0.614,-0.264c0.582,-0.096 0.261,-0.217 1.15,0.096l0.801,0.644c0.503,0.797 0.334,0.711 0.337,1.187c0,0 -0.108,0.56 -0.195,0.732c-0.29,0.572 -0.761,1.038 -1.179,1.543c-7.76,9.318 -15.046,18.959 -22.822,28.56l-0.15,0.186c3.927,-3.894 7.892,-7.769 11.808,-11.681l0.361,-0.362c3.232,-3.025 6.547,-6.016 9.866,-8.989c0.859,-0.764 0.502,-0.623 1.486,-0.688c0,0 1.858,0.404 1.929,2.118c0.03,0.733 -0.385,1.392 -0.831,2.004c-10.123,13.829 -20.782,27.329 -30.762,41.167l-0.099,0.138c2.339,-2.6 5.133,-4.79 7.769,-7.127c4.09,-3.633 8.15,-7.299 12.132,-11.044c0,0 1.332,-1.742 2.51,-3.264c3.547,-4.582 6.825,-9.45 11.115,-13.32c0.879,-0.792 1.959,-1.596 3.199,-1.083c0.195,0.08 0.781,0.6 0.781,0.6l0.509,-0.259c0.304,-0.09 0.09,-0.081 0.632,-0.096l0.406,0.053c0.527,0.165 0.295,0.007 0.836,0.453l0.267,0.312c0.716,1.143 -0.009,2.888 -0.68,4.476c-2.761,6.542 -7.533,12.052 -12.099,17.735c-1.445,1.797 -2.899,3.587 -4.347,5.381c0,0 -0.642,0.886 -1.353,1.858c-1.197,1.633 -2.409,3.254 -3.627,4.871c4.733,-4.226 9.446,-8.467 14.252,-12.65c2.285,-2.011 4.256,-4.384 6.627,-6.269c0.647,-0.515 1.739,-0.74 2.293,-0.561c0.024,0.008 0.751,0.38 1.066,0.987c0,0 0.249,1.015 0.041,1.968c-0.741,3.392 -2.897,6.39 -4.9,9.44c-3.785,5.764 -8.159,11.034 -11.936,16.966l-0.019,0.031c1.764,-1.938 3.325,-4.121 5.073,-5.89c0.569,-0.576 1.205,-1.086 2.251,-0.943l0.269,0.076c0.344,0.139 0.179,0.039 0.525,0.289c0,0 0.845,0.752 0.872,1.817c0.066,2.708 -2.526,4.688 -3.717,6.499c-2.03,3.119 -3.448,6.627 -6.089,9.287c0,0 -1.463,1.024 -2.511,0.213c-0.536,-0.414 -0.841,-1.056 -0.681,-1.848c-1.207,1.178 -2.408,2.387 -3.759,3.39c-0.556,0.412 -1.175,0.747 -1.974,0.663c0,0 -0.819,-0.333 -0.819,-0.333c-0.201,-0.157 -0.251,-0.215 -0.251,-0.215c-0.142,-0.158 -0.34,-0.479 -0.34,-0.479c-0.092,-0.202 -0.108,-0.262 -0.108,-0.262c-0.05,-0.184 -0.113,-1.099 0.266,-1.859c2.226,-4.466 5.364,-8.514 8.113,-12.812c3.829,-5.915 8.339,-11.401 12.188,-17.346l0.049,-0.076c-6.865,6.045 -13.648,12.202 -20.573,18.237c-1.546,1.346 -2.262,3.913 -4.905,3.321c-2.66,3.687 -5.173,7.445 -7.534,11.42c-0.194,0.318 0.005,0.155 -0.461,0.62c-0.246,0.246 -0.796,0.471 -0.796,0.471c-0.356,0.089 -0.125,0.095 -0.718,0.068l-0.465,-0.107c-0.654,-0.282 -0.367,-0.105 -0.785,-0.555l-0.227,-0.342c-0.089,-0.191 -0.108,-0.254 -0.108,-0.254c-0.348,-1.24 1.33,-4.677 2.774,-7.665c3.331,-6.893 6.69,-13.713 10.511,-20.223l0.152,-0.258c-3.121,2.783 -6.438,5.348 -9.227,8.46c-2.69,3.009 -5.26,6.261 -8.605,8.473c-0.917,0.607 -1.93,1.112 -3.025,1.146c0,0 -0.189,0.029 -0.647,-0.094c0,0 -0.223,0.058 -0.825,-0.555c0,0 -0.343,-0.301 -0.445,-1.095l0.103,-0.745c0.3,-0.769 0.773,-1.451 1.196,-2.161c3.607,-6.049 8.006,-11.704 12.147,-17.43c4.659,-6.433 9.499,-12.736 14.33,-19.046l0.364,-0.474c-5.961,5.896 -11.962,11.709 -17.774,17.809c-3.397,3.566 -6.614,7.547 -10.397,10.835c-0.574,0.499 -1.188,0.997 -1.946,1.078c-0.701,0.075 -1.606,-0.606 -1.606,-0.606c-0.14,-0.159 -0.195,-0.235 -0.266,-0.351c-0.265,-0.429 -0.352,-1.203 -0.352,-1.203c-0.739,0.173 -1.481,-0.025 -2.028,-0.561c-0.021,-0.021 -0.332,-0.492 -0.332,-0.492c-0.055,-0.13 -0.238,-0.698 -0.17,-1.173c0.207,-1.43 1.386,-2.496 2.175,-3.553c3.466,-4.615 7.294,-8.905 10.87,-13.559c2.864,-3.722 5.796,-7.398 8.784,-11.031l0.359,-0.436c-0.281,0.287 -0.561,0.574 -0.841,0.862c-6.285,6.464 -12.403,13.195 -18.619,19.715c-3.384,3.55 -6.563,7.393 -10.175,10.729c-0.745,0.688 -1.494,1.455 -2.516,1.544c-0.404,0.035 -1.695,-0.309 -2.02,-1.395c-0.627,-2.096 1.563,-4.469 3.188,-6.875c2.014,-2.982 4.138,-5.895 6.278,-8.799c0,0 -0.314,-0.617 -0.279,-1.168c0.12,-1.91 1.7,-3.279 3.014,-5.173c2.86,-4.137 5.595,-8.367 8.864,-12.206c4.701,-5.52 9.949,-10.588 14.89,-15.855c0,0 1.685,-2.145 3.313,-4.158c0.557,-0.689 1.121,-1.373 1.691,-2.051l0.236,-0.281c-0.563,0.146 -1.376,0.406 -1.376,0.406c-2.961,2.276 -4.978,3.692 -7.209,5.412c-3.919,3.023 -7.748,6.166 -11.427,9.477l-0.067,0.06c-4.431,4.977 -9.266,9.51 -13.781,14.751l-0.016,0.019c-1.776,2.402 -3.353,4.962 -4.713,7.603l-0.579,0.69c-0.448,0.3 -0.285,0.218 -0.66,0.311c-0.191,0.047 -0.223,0.103 -0.812,0.018c0,0 -0.405,-0.023 -0.952,-0.509c0,0 -0.154,-0.043 -0.424,-0.654c0,0 -0.083,-0.068 -0.123,-0.666c0,0 0.65,-2.163 1.135,-3.075c1.115,-2.1 2.523,-4.031 4.055,-5.851c0,0 1.197,-1.574 2.179,-2.781c3.621,-4.454 7.689,-8.529 11.94,-12.386c0,0 1.584,-1.766 3.114,-3.4c4.766,-5.092 10.008,-9.942 16.531,-12.329c0,0 1.631,-1.242 3.084,-2.273c1.683,-1.195 3.366,-2.421 5.278,-3.18c1.033,-0.411 2.334,-0.595 3.244,0.217c0,0 1.236,-0.223 2.006,0.431c1.982,1.684 -0.527,5.315 -2.809,8.162c-1.032,1.287 -2.127,2.514 -3.178,3.802c0,0 -1.486,1.959 -2.735,3.678c-2.749,3.785 -5.426,7.617 -8.205,11.367c5.164,-5.121 10.534,-10.075 16.266,-14.566c0,0 0.957,-0.889 1.947,-1.648c0.532,-0.408 1.373,-0.656 1.526,-0.668c0.076,-0.003 0.153,-0.001 0.229,0.006Zm1.886,35.495c-1.519,1.488 -3.261,2.871 -4.428,4.486c-3.427,4.765 -6.588,9.743 -9.452,14.898l-0.189,0.343c2.264,-3.186 4.705,-6.247 7.156,-9.294l0.18,-0.223c1.295,-1.804 2.566,-3.626 3.793,-5.476c1.095,-1.651 2.143,-3.333 3.224,-4.998c0,0 -0.18,0.162 -0.284,0.264Z" style="" fill-rule="nonzero"></path></svg></g></svg>