<svg xmlns="http://www.w3.org/2000/svg" xmlns:xlink="http://www.w3.org/1999/xlink" width="100" height="100" viewBox="0 0 100 100"><circle stroke="none" fill="#000000" r="48%" cx="50%" cy="50%"></circle><g transform="translate(50 50) scale(0.69 0.69) rotate(0) translate(-50 -50)" style="fill:#ffffff"><svg fill="#ffffff" xmlns="http://www.w3.org/2000/svg" xmlns:xlink="http://www.w3.org/1999/xlink" version="1.1" x="0px" y="0px" viewBox="0 0 100 100" style="enable-background:new 0 0 100 100;" xml:space="preserve"><style type="text/css">
	.st0{fill:none;stroke:#ffffff;stroke-width:4;stroke-linecap:round;stroke-linejoin:round;stroke-miterlimit:10;}
	.st1{fill:none;stroke:#ffffff;stroke-width:4;stroke-linecap:round;stroke-linejoin:round;}
	.st2{fill:none;stroke:#ffffff;stroke-width:4;stroke-linecap:round;stroke-linejoin:round;stroke-dasharray:0,7.2289;}
	.st3{fill:none;}
	.st4{fill:none;stroke:#ffffff;stroke-width:4;stroke-linecap:round;stroke-linejoin:round;stroke-dasharray:0,6.6667;}
	.st5{fill:none;stroke:#ffffff;stroke-width:4;stroke-linecap:round;stroke-linejoin:round;stroke-dasharray:0,7;}
</style><g><path d="M85.2,21.1H14.8c-3.8,0-6.8,3.1-6.8,6.8v44.2c0,3.8,3.1,6.8,6.8,6.8h70.4c3.8,0,6.8-3.1,6.8-6.8V27.9   C92,24.1,88.9,21.1,85.2,21.1z M83.9,25.1L54.5,54.5C52,57,48,57,45.5,54.5L16.1,25.1H83.9z M12.1,72.6c0-0.2-0.1-0.3-0.1-0.5V27.9   c0-0.4,0.1-0.7,0.2-1.1c0,0,0.1,0.1,0.1,0.1L35,49.6L12.1,72.6z M15.4,74.9l22.5-22.5l4.9,4.9c2,2,4.6,3,7.3,3s5.3-1,7.3-3l4.6-4.6   l22.2,22.2H15.4z M88,72.1c0,0.3-0.1,0.6-0.2,0.9L64.7,49.9l23-23c0,0,0.1-0.1,0.1-0.1c0.1,0.3,0.2,0.7,0.2,1.1V72.1z"></path></g></svg></g></svg>